<svg width="14" height="13" viewBox="0 0 14 13" fill="none" xmlns="http://www.w3.org/2000/svg">
<path d="M7.95106 0.927052C7.6517 0.0057416 6.3483 0.00574088 6.04894 0.927052L5.20389 3.52786C5.07001 3.93989 4.68606 4.21885 4.25283 4.21885H1.51818C0.549454 4.21885 0.146676 5.45846 0.93039 6.02786L3.14277 7.63525C3.49326 7.8899 3.63992 8.34127 3.50604 8.75329L2.66099 11.3541C2.36164 12.2754 3.41612 13.0415 4.19983 12.4721L6.41221 10.8647C6.7627 10.6101 7.2373 10.6101 7.58778 10.8647L9.80017 12.4721C10.5839 13.0415 11.6384 12.2754 11.339 11.3541L10.494 8.75329C10.3601 8.34127 10.5067 7.8899 10.8572 7.63525L13.0696 6.02787C13.8533 5.45846 13.4505 4.21885 12.4818 4.21885H9.74717C9.31394 4.21885 8.92999 3.93989 8.79611 3.52786L7.95106 0.927052Z" fill="white"/>
</svg>
